<svg xmlns="http://www.w3.org/2000/svg" width="68" height="81" fill="none"><path fill="#A4A4A4" fill-opacity=".15" d="M.591 75.666c11.432-10.537 19.776-18.44 25.032-23.707 5.256-5.4 8.936-10.01 11.038-13.83 2.234-3.82 3.35-7.705 3.35-11.656 0-4.873-1.248-9.088-3.744-12.644-2.497-3.688-6.045-5.531-10.644-5.531-4.862 0-8.87 2.173-12.023 6.52-3.022 4.214-6.11 10.8-9.264 19.755 0 .132-.263.198-.788.198-1.183 0-1.708-.198-1.577-.593L10.643.395c0-.263.263-.395.789-.395.394 0 .723.132.985.395.395.132.526.264.395.395-.132.659-.197 1.449-.197 2.371 0 2.239.985 3.359 2.956 3.359 1.183 0 3.154-.461 5.913-1.383 5.65-1.976 10.84-2.964 15.571-2.964 7.227 0 12.877 1.712 16.95 5.137 4.074 3.424 6.11 7.968 6.11 13.632 0 6.848-2.693 13.104-8.08 18.768-5.256 5.532-12.549 11.59-21.878 18.175l-7.884 5.927c-.395.395-.526.725-.395.988.263.263.723.395 1.38.395 10.512 0 18.396-.197 23.652-.593 5.388-.395 9.592-1.25 12.615-2.568 3.153-1.449 5.19-3.688 6.11-6.717.131-.395.525-.593 1.182-.593.789 0 1.183.198 1.183.593l-4.14 23.51c0 .527-.196 1.053-.59 1.58-.263.395-.657.593-1.183.593H1.774c-.526 0-.986-.395-1.38-1.185A7.474 7.474 0 0 1 0 77.444c0-.79.197-1.383.591-1.778Z"/></svg>