<svg xmlns="http://www.w3.org/2000/svg" width="68" height="93" fill="none"><path fill="#A4A4A4" fill-opacity=".15" d="M2.548 93c-.478 0-.717-.47-.717-1.41 0-.939.24-1.408.717-1.408 6.21 0 10.75-.392 13.616-1.174 3.026-.783 5.096-2.27 6.21-4.463 1.116-2.348 1.673-5.87 1.673-10.568V32.644c0-5.01-.558-8.533-1.672-10.568-.956-2.192-2.787-3.288-5.494-3.288-2.548 0-7.644 1.487-15.288 4.462h-.24c-.477 0-.875-.391-1.194-1.174-.318-.783-.159-1.331.478-1.644L44.112.235c.16-.157.398-.235.717-.235.478 0 .876.235 1.194.705.319.313.478.704.478 1.174v72.098c0 4.854.478 8.376 1.433 10.568.956 2.192 2.867 3.68 5.733 4.463 2.867.782 7.406 1.174 13.616 1.174.478 0 .717.47.717 1.409 0 .94-.239 1.409-.717 1.409-5.733 0-10.192-.078-13.377-.235l-18.87-.235-18.872.235C12.82 92.922 8.28 93 2.548 93Z"/></svg>