<svg xmlns="http://www.w3.org/2000/svg" width="61" height="90" fill="none"><path fill="#A4A4A4" fill-opacity=".15" d="M60.54 53.571c.307 0 .46.817.46 2.45 0 1.122-.102 2.193-.306 3.214-.102 1.02-.256 1.53-.46 1.53l-10.108-.459v21.276c0 1.02-.408 1.734-1.225 2.143l-12.1 5.969-.919.306c-.306 0-.46-.408-.46-1.225V59.847c-6.125-.102-17.459-.153-34-.153-.51 0-.919-.204-1.225-.612-.306-.409-.255-.817.153-1.225L47.83.307c.204-.205.51-.307.919-.307.306 0 .612.102.918.306.307.102.46.306.46.612v52.96c2.042 0 5.514-.102 10.415-.307Zm-49.928.919c11.844 0 20.114-.051 24.81-.153V23.418l-25.576 30c-.613.715-.358 1.072.766 1.072Z"/></svg>