<svg xmlns="http://www.w3.org/2000/svg" width="51" height="105" fill="none"><path fill="#A4A4A4" fill-opacity=".15" d="M29.54 42.665c7.103 1.126 12.43 3.735 15.981 7.827 3.653 4.093 5.479 8.8 5.479 14.12 0 4.808-1.725 9.72-5.175 14.733-3.348 5.013-8.573 9.72-15.676 14.12-7 4.5-15.726 8.338-26.177 11.509-.406.103-.76-.102-1.065-.613-.203-.512-.102-.87.304-1.075 11.06-4.502 19.024-10.129 23.895-16.882 4.87-6.65 7.305-13.25 7.305-19.797 0-6.037-1.522-10.846-4.566-14.427-3.044-3.683-7.153-5.525-12.328-5.525-2.029 0-4.109.307-6.24.921-.304.102-.557-.153-.76-.767-.203-.614-.153-.972.152-1.075 7.102-1.841 12.277-4.604 15.523-8.287 3.247-3.786 4.87-9.055 4.87-15.808 0-5.115-.76-9.003-2.282-11.663-1.522-2.763-3.754-4.144-6.697-4.144-4.261 0-8.167 1.483-11.719 4.45-3.45 2.968-6.29 7.265-8.522 12.892 0 .102-.203.154-.61.154-.912 0-1.318-.205-1.217-.614L5.646.307C5.85.102 6.052 0 6.256 0c.304 0 .608.102.912.307.305.102.406.205.305.307-.203.818-.305 1.381-.305 1.688 0 1.74.863 2.61 2.588 2.61 1.217 0 2.942-.41 5.174-1.229 2.435-.716 4.515-1.227 6.24-1.534 1.725-.41 3.703-.614 5.936-.614 6.087 0 10.805 1.74 14.154 5.218 3.45 3.376 5.174 7.469 5.174 12.277 0 4.912-1.522 9.567-4.566 13.966-2.942 4.297-7.051 7.52-12.327 9.669Z"/></svg>