<svg xmlns="http://www.w3.org/2000/svg" width="198" height="65" fill="none"><path fill="#7A0000" fill-rule="evenodd" d="M14.763 64.135h13.29V.865H15.56L0 10.782v11.863l14.395-9.083h.368v50.573ZM.9 21.007l13.236-8.35h1.527v50.572h11.49V1.77h-11.33L.9 11.281v9.726Zm101.343 11.241V30.31l.719-.149c6.147-1.272 10.546-6.614 10.576-13.139C113.507 7.935 104.812.906 92.37.906c-12.477 0-21.165 7.032-21.136 16.114v.006c-.03 6.491 4.306 11.86 10.572 13.134l.722.146v1.944l-.754.125c-7.28 1.202-12.902 7.313-12.873 14.734v.006c-.014 4.795 2.358 9.01 6.488 12.057 4.14 3.054 10.044 4.922 16.981 4.922 13.958 0 23.47-7.463 23.501-16.98-.031-7.426-5.718-13.539-12.876-14.74l-.752-.126Zm14.528 14.865C116.74 57.369 106.55 65 92.371 65 78.19 65 67.97 57.37 68 47.113c-.03-7.513 5.37-13.716 12.488-15.404a16.786 16.786 0 0 1 1.14-.229v-.432a14.644 14.644 0 0 1-1.118-.273c-6.085-1.742-10.207-7.225-10.178-13.753C70.303 7.23 79.633 0 92.37 0c12.707 0 22.038 7.23 22.068 17.022-.029 6.556-4.207 12.013-10.193 13.752a14.35 14.35 0 0 1-1.102.274v.433l.092.015c.347.06.691.132 1.032.214 7.018 1.688 12.475 7.89 12.504 15.403Zm-32.64 6.196c-2.051-1.787-3.22-4.317-3.22-7.247 0-6.069 4.96-10.328 11.46-10.328 6.466 0 11.458 4.258 11.458 10.328 0 2.946-1.177 5.477-3.232 7.26-2.046 1.773-4.907 2.76-8.227 2.76-3.336 0-6.197-.995-8.239-2.773Zm1.094-28.107c-1.8-1.678-2.84-4.046-2.84-6.79 0-2.712 1.025-5.045 2.822-6.693 1.791-1.643 4.29-2.554 7.163-2.554 2.862 0 5.36.92 7.152 2.565 1.799 1.65 2.834 3.982 2.834 6.683 0 5.571-4.278 9.401-9.986 9.401-2.851 0-5.35-.94-7.145-2.612Zm95.638 12.045H197.1V28h-16.237V11.657h-9.187V28H155.44v9.247h16.236V53.59h9.187V37.247Zm.901 17.25h-10.988V38.153H154.54v-11.06h16.236V10.75h10.988v16.343H198v11.06h-16.236v16.342Zm-99.952-8.435c0 5.345 4.236 9.114 10.558 9.114 6.292 0 10.559-3.738 10.559-9.114 0-5.468-4.481-9.422-10.559-9.422-6.107 0-10.558 3.954-10.558 9.422Zm1.474-27.65c0 5.005 3.775 8.496 9.084 8.496 5.28 0 9.085-3.49 9.085-8.495 0-4.912-3.744-8.342-9.085-8.342-5.37 0-9.085 3.399-9.085 8.342Z" clip-rule="evenodd"/></svg>