<svg xmlns="http://www.w3.org/2000/svg" aria-hidden="true" style="position:absolute;width:0;height:0;overflow:hidden"><defs><symbol id="arrow-down" viewBox="0 0 32 32"><path d="M14.586 22.243a2 2 0 0 0 2.828 0L30.142 9.515a2 2 0 1 0-2.828-2.828L16 18.001 4.686 6.687a2 2 0 1 0-2.828 2.828l12.728 12.728zM14 18v2.828h4V18h-4z"/></symbol><symbol id="basket" viewBox="0 0 32 32"><path d="M21.33 25.36a3.751 3.751 0 0 1 3.746-3.746 3.753 3.753 0 0 1 3.746 3.746 3.751 3.751 0 0 1-3.746 3.746 3.751 3.751 0 0 1-3.747-3.746zm2.037 0a1.706 1.706 0 0 0 2.919 1.209 1.706 1.706 0 0 0 0-2.418 1.706 1.706 0 0 0-2.418 0c-.321.32-.501.755-.502 1.209zm-13.443 0a3.751 3.751 0 0 1 3.746-3.746 3.751 3.751 0 0 1 3.746 3.746 3.751 3.751 0 0 1-3.746 3.746 3.751 3.751 0 0 1-3.747-3.746h.001zm2.036 0a1.715 1.715 0 0 0 1.711 1.71 1.712 1.712 0 0 0 1.711-1.71 1.715 1.715 0 0 0-1.711-1.71 1.712 1.712 0 0 0-1.711 1.71h.001zm-1.404-4.24a1.02 1.02 0 0 1-.968-.702L4.469 4.704h-3.45a1.022 1.022 0 0 1-1.02-1.018 1.018 1.018 0 0 1 1.018-1.018h4.189a1.02 1.02 0 0 1 .968.702l1.063 3.263h23.745a1.018 1.018 0 0 1 1.007 1.173c.021.14.013.284-.024.421l-3.286 12.142a1.019 1.019 0 0 1-.983.752h-17.14zm.739-2.037h15.622l2.819-10.416H7.901l3.393 10.416z"/></symbol><symbol id="phone" viewBox="0 0 32 32"><path d="M8.833 14.393a20.082 20.082 0 0 0 8.787 8.78l2.933-2.94a1.338 1.338 0 0 1 1.353-.327c1.493.493 3.1.76 4.76.76.74 0 1.333.593 1.333 1.333v4.667c0 .74-.593 1.333-1.333 1.333-12.52 0-22.667-10.147-22.667-22.667 0-.74.6-1.333 1.333-1.333h4.667c.74 0 1.333.593 1.333 1.333 0 1.66.267 3.267.76 4.76.147.46.04.987-.327 1.353l-2.933 2.947z"/></symbol><symbol id="search" viewBox="0 0 32 32"><path stroke-linecap="round" stroke-linejoin="round" stroke-width="2.667" d="M14 24c5.523 0 10-4.477 10-10S19.523 4 14 4 4 8.477 4 14s4.477 10 10 10zM28 28l-6.933-6.933"/></symbol></defs></svg>