<svg xmlns="http://www.w3.org/2000/svg" aria-hidden="true" style="position:absolute;width:0;height:0;overflow:hidden"><defs><symbol id="arrow-down" viewBox="0 0 64 32"><path d="M57.397.96a4.002 4.002 0 0 1 5.211 6.076l-.005.004-28 24c-.695.598-1.606.963-2.603.963s-1.908-.364-2.608-.967l.005.004-28.011-24A4.005 4.005 0 1 1 6.607.965L6.602.961l25.397 21.771L57.396.972z"/></symbol><symbol id="search" viewBox="0 0 32 32"><path stroke-linecap="round" stroke-linejoin="round" stroke-width="1.882" d="M13.982 26.084c6.683 0 12.101-5.418 12.101-12.101S20.665 1.882 13.982 1.882C7.299 1.882 1.881 7.3 1.881 13.983s5.418 12.101 12.101 12.101zm9.414-2.69 6.722 6.722"/></symbol></defs></svg>