<svg xmlns="http://www.w3.org/2000/svg" aria-hidden="true" style="position:absolute;width:0;height:0;overflow:hidden"><defs><symbol id="phone" width="24" height="24" viewBox="0 0 32 32"><path d="M8.833 14.393a20.082 20.082 0 0 0 8.787 8.78l2.933-2.94a1.338 1.338 0 0 1 1.353-.327c1.493.493 3.1.76 4.76.76.74 0 1.333.593 1.333 1.333v4.667c0 .74-.593 1.333-1.333 1.333-12.52 0-22.667-10.147-22.667-22.667 0-.74.6-1.333 1.333-1.333h4.667c.74 0 1.333.593 1.333 1.333 0 1.66.267 3.267.76 4.76.147.46.04.987-.327 1.353l-2.933 2.947z"/></symbol></defs></svg>